<svg width="24" height="24" viewBox="0 0 24 24" fill="none" xmlns="http://www.w3.org/2000/svg">
<path fill-rule="evenodd" clip-rule="evenodd" d="M11.1005 2.21083C11.6785 1.98262 12.3217 1.98262 12.8998 2.21083C13.2004 2.3295 13.4461 2.51668 13.6771 2.72915C13.8983 2.93255 14.1481 3.19979 14.4431 3.5155L14.462 3.5357C14.8154 3.91384 14.9135 4.01197 15.0171 4.0811C15.1532 4.17194 15.3058 4.23516 15.4663 4.26719C15.5885 4.29155 15.7272 4.29151 16.2445 4.27403L16.2721 4.2731C16.704 4.25849 17.0696 4.24613 17.3698 4.25869C17.6834 4.2718 17.9895 4.31322 18.286 4.44186C18.8561 4.68925 19.3109 5.14404 19.5583 5.71416C19.6869 6.01062 19.7283 6.31675 19.7414 6.63035C19.754 6.93048 19.7416 7.29593 19.727 7.72764L19.7261 7.75563C19.7086 8.27293 19.7086 8.41167 19.7329 8.5338C19.765 8.69428 19.8282 8.84692 19.919 8.98305C19.9881 9.08664 20.0863 9.18471 20.4644 9.53813L20.4847 9.55705C20.8004 9.85209 21.0676 10.1018 21.271 10.323C21.4834 10.554 21.6706 10.7998 21.7893 11.1004C22.0175 11.6784 22.0175 12.3216 21.7893 12.8996C21.6706 13.2002 21.4834 13.446 21.271 13.677C21.0676 13.8982 20.8003 14.1479 20.4846 14.443L20.4644 14.4619C20.0863 14.8153 19.9881 14.9134 19.919 15.0169C19.8282 15.1531 19.765 15.3057 19.7329 15.4662C19.7086 15.5883 19.7086 15.7271 19.7261 16.2444L19.727 16.2721C19.7416 16.7039 19.754 17.0695 19.7414 17.3696C19.7283 17.6832 19.6869 17.9894 19.5583 18.2858C19.3109 18.856 18.8561 19.3108 18.286 19.5581C17.9895 19.6868 17.6834 19.7282 17.3698 19.7413C17.0696 19.7539 16.7042 19.7415 16.2725 19.7269L16.2445 19.726C15.7272 19.7085 15.5885 19.7084 15.4663 19.7328C15.3058 19.7648 15.1532 19.8281 15.0171 19.9189C14.9135 19.988 14.8154 20.0862 14.462 20.4643L14.4431 20.4845C14.1481 20.8002 13.8983 21.0674 13.6771 21.2709C13.4461 21.4833 13.2004 21.6705 12.8998 21.7892C12.3217 22.0174 11.6785 22.0174 11.1005 21.7892C10.7999 21.6705 10.5541 21.4833 10.3231 21.2709C10.1019 21.0674 9.85219 20.8002 9.55714 20.4845L9.53826 20.4643C9.18484 20.0862 9.08676 19.988 8.98317 19.9189C8.84704 19.8281 8.6944 19.7648 8.53392 19.7328C8.41179 19.7084 8.27305 19.7085 7.75575 19.726L7.72798 19.7269C7.29627 19.7415 6.9306 19.7539 6.63047 19.7413C6.31688 19.7282 6.01075 19.6868 5.71428 19.5581C5.14416 19.3108 4.68937 18.856 4.44199 18.2858C4.31334 17.9894 4.27192 17.6832 4.25881 17.3697C4.24625 17.0694 4.25861 16.7039 4.27322 16.272L4.27415 16.2444C4.29164 15.7271 4.29168 15.5883 4.26731 15.4662C4.23529 15.3057 4.17206 15.1531 4.08122 15.0169C4.0121 14.9134 3.91396 14.8153 3.53582 14.4619L3.51562 14.443C3.19992 14.1479 2.93268 13.8982 2.72927 13.677C2.5168 13.446 2.32962 13.2002 2.21095 12.8996C1.98274 12.3216 1.98274 11.6784 2.21095 11.1004C2.32962 10.7998 2.5168 10.554 2.72927 10.323C2.93268 10.1018 3.19991 9.85206 3.51562 9.55701L3.53582 9.53813C3.91396 9.18471 4.0121 9.08664 4.08122 8.98305C4.17206 8.84692 4.23529 8.69429 4.26731 8.5338C4.29168 8.41167 4.29164 8.27293 4.27415 7.75563L4.27322 7.72798C4.25861 7.29612 4.24625 6.93056 4.25881 6.63035C4.27192 6.31675 4.31334 6.01062 4.44199 5.71415C4.68937 5.14404 5.14416 4.68924 5.71428 4.44186C6.01074 4.31322 6.31688 4.2718 6.63047 4.25869C6.93068 4.24613 7.29624 4.25849 7.7281 4.2731L7.75575 4.27403C8.27305 4.29151 8.41179 4.29155 8.53392 4.26719C8.69441 4.23516 8.84704 4.17194 8.98317 4.0811C9.08676 4.01197 9.18483 3.91384 9.53826 3.53569L9.55713 3.5155C9.85218 3.19979 10.1019 2.93255 10.3231 2.72915C10.5541 2.51668 10.7999 2.3295 11.1005 2.21083ZM15.4939 11.0644C15.8056 10.7917 15.8372 10.3179 15.5644 10.0061C15.2917 9.6944 14.8178 9.66282 14.5061 9.93558L11.2102 12.8195C11.1403 12.8807 11.0837 12.9302 11.0342 12.9721C10.9876 12.927 10.9345 12.8739 10.8687 12.8082L10.0304 11.9697C9.73748 11.6768 9.2626 11.6768 8.9697 11.9697C8.67679 12.2625 8.67676 12.7374 8.96964 13.0303L9.83111 13.8919C9.96729 14.0282 10.1159 14.1769 10.2588 14.2867C10.4269 14.4159 10.6648 14.5545 10.9811 14.565C11.2975 14.5755 11.5441 14.4531 11.7204 14.3354C11.8703 14.2353 12.0285 14.0968 12.1735 13.9698L15.4939 11.0644Z" fill="black"/>
</svg>
